<?xml version="1.0" encoding="UTF-8" standalone="no"?>
<svg
   xmlns:dc="http://purl.org/dc/elements/1.1/"
   xmlns:cc="http://creativecommons.org/ns#"
   xmlns:rdf="http://www.w3.org/1999/02/22-rdf-syntax-ns#"
   xmlns:svg="http://www.w3.org/2000/svg"
   xmlns="http://www.w3.org/2000/svg"
   xmlns:sodipodi="http://sodipodi.sourceforge.net/DTD/sodipodi-0.dtd"
   xmlns:inkscape="http://www.inkscape.org/namespaces/inkscape"
   width="210mm"
   height="297mm"
   viewBox="0 0 210 297"
   version="1.1"
   id="svg8"
   inkscape:version="1.0.1 (0767f8302a, 2020-10-17)"
   sodipodi:docname="title.svg">
  <defs
     id="defs2">
    <inkscape:path-effect
       effect="clone_original"
       id="path-effect874"
       is_visible="true"
       lpeversion="1"
       linkeditem=""
       method="d"
       attributes=""
       css_properties=""
       allow_transforms="true" />
    <inkscape:path-effect
       effect="join_type"
       id="path-effect126"
       is_visible="true"
       lpeversion="1"
       linecap_type="butt"
       line_width="1"
       linejoin_type="extrp_arc"
       miter_limit="100"
       attempt_force_join="true" />
    <inkscape:path-effect
       effect="simplify"
       id="path-effect124"
       is_visible="true"
       lpeversion="1"
       steps="1"
       threshold="0.002"
       smooth_angles="0"
       helper_size="5"
       simplify_individual_paths="false"
       simplify_just_coalesce="false" />
    <inkscape:path-effect
       effect="mirror_symmetry"
       start_point="85.029128,73.361649"
       end_point="85.029128,81.345632"
       center_point="85.029128,77.35364"
       id="path-effect122"
       is_visible="true"
       lpeversion="1"
       mode="free"
       discard_orig_path="false"
       fuse_paths="false"
       oposite_fuse="false"
       split_items="false" />
    <inkscape:path-effect
       effect="copy_rotate"
       starting_point="0,0"
       origin="28.169127,77.35364"
       id="path-effect120"
       is_visible="true"
       lpeversion="1"
       method="normal"
       num_copies="6"
       starting_angle="0"
       rotation_angle="60"
       gap="-0.01"
       copies_to_360="true"
       mirror_copies="false"
       split_items="false" />
    <inkscape:path-effect
       effect="fill_between_strokes"
       id="path-effect118"
       is_visible="true"
       lpeversion="1"
       linkedpath=""
       secondpath=""
       reversesecond="false"
       join="true"
       close="true" />
    <inkscape:path-effect
       effect="fill_between_many"
       id="path-effect116"
       is_visible="true"
       lpeversion="1"
       linkedpaths=""
       method="bsplinespiro"
       join="true"
       close="true"
       autoreverse="true"
       applied="false" />
    <inkscape:path-effect
       effect="perspective-envelope"
       up_left_point="27.357769,69.444642"
       up_right_point="94.526556,69.337724"
       down_left_point="28.138004,81.377657"
       down_right_point="85.001512,81.377657"
       id="path-effect114"
       is_visible="true"
       lpeversion="1"
       deform_type="perspective"
       horizontal_mirror="false"
       vertical_mirror="false"
       overflow_perspective="false" />
    <inkscape:path-effect
       effect="skeletal"
       id="path-effect112"
       is_visible="true"
       lpeversion="1"
       pattern="M 0,0 H 1"
       copytype="single_stretched"
       prop_scale="1"
       scale_y_rel="false"
       spacing="0"
       normal_offset="0"
       tang_offset="0"
       prop_units="false"
       vertical_pattern="false"
       hide_knot="false"
       fuse_tolerance="0" />
    <inkscape:path-effect
       effect="knot"
       id="path-effect110"
       is_visible="true"
       lpeversion="1"
       switcher_size="15"
       interruption_width="3"
       prop_to_stroke_width="true"
       add_stroke_width="inkscape_1.0_and_up"
       both="false"
       inverse_width="false"
       add_other_stroke_width="inkscape_1.0_and_up"
       crossing_points_vector="" />
    <inkscape:path-effect
       effect="offset"
       id="path-effect102"
       is_visible="true"
       lpeversion="1"
       linejoin_type="miter"
       unit="mm"
       offset="4.8440228"
       miter_limit="4"
       attempt_force_join="true"
       update_on_knot_move="true" />
    <inkscape:path-effect
       effect="envelope"
       id="path-effect100"
       is_visible="true"
       lpeversion="1"
       yy="true"
       xx="true"
       bendpath1="M 28.169127,73.361649 H 85.029128"
       bendpath2="m 85.029128,73.361649 v 7.983983"
       bendpath3="M 28.169127,81.345632 H 85.029128"
       bendpath4="m 28.169127,73.361649 v 7.983983" />
    <inkscape:path-effect
       effect="curvestitching"
       id="path-effect98"
       is_visible="true"
       lpeversion="1"
       count="5"
       startpoint_edge_variation="0;1"
       startpoint_spacing_variation="0;1"
       endpoint_edge_variation="0;1"
       endpoint_spacing_variation="0;1"
       strokepath="M 0,0 H 1"
       prop_scale="1"
       scale_y_rel="false" />
    <inkscape:path-effect
       effect="bounding_box"
       id="path-effect96"
       is_visible="true"
       lpeversion="1"
       linkedpath=""
       visualbounds="false" />
    <rect
       x="27.721568"
       y="71.832848"
       width="176.6034"
       height="121.10746"
       id="rect12" />
  </defs>
  <sodipodi:namedview
     id="base"
     pagecolor="#ffffff"
     bordercolor="#666666"
     borderopacity="1.0"
     inkscape:pageopacity="0.0"
     inkscape:pageshadow="2"
     inkscape:zoom="0.49497475"
     inkscape:cx="364.30982"
     inkscape:cy="520.59264"
     inkscape:document-units="mm"
     inkscape:current-layer="g94"
     inkscape:document-rotation="0"
     showgrid="false"
     inkscape:snap-global="false"
     showguides="false"
     inkscape:window-width="1354"
     inkscape:window-height="712"
     inkscape:window-x="0"
     inkscape:window-y="27"
     inkscape:window-maximized="0" />
  <metadata
     id="metadata5">
    <rdf:RDF>
      <cc:Work
         rdf:about="">
        <dc:format>image/svg+xml</dc:format>
        <dc:type
           rdf:resource="http://purl.org/dc/dcmitype/StillImage" />
        <dc:title />
      </cc:Work>
    </rdf:RDF>
  </metadata>
  <g
     inkscape:label="Capa 1"
     inkscape:groupmode="layer"
     id="layer1">
    <g
       aria-label="RomeoDev"
       transform="matrix(2.8026439,0,0,7.0745957,-55.8366,-425.66234)"
       id="text10"
       style="font-size:10.5833px;line-height:1.25;font-family:sans-serif;letter-spacing:0px;word-spacing:0px;white-space:pre;shape-inside:url(#rect12)">
      <g
         id="g94"
         inkscape:path-effect="#path-effect118;#path-effect124;#path-effect126">
        <g
           id="g872"
           inkscape:path-effect="#path-effect874"
           transform="translate(0.66276485,-0.90000127)">
          <path
             d="m 32.418076,77.578432 c 0.223931,0.07579 0.440971,0.237711 0.651121,0.485757 0.213595,0.248046 0.427191,0.589109 0.640786,1.02319 l 1.059363,2.108392 c 0,0 -0.321227,0.260487 -1.121375,0 -0.800148,-0.260487 -0.859549,-1.72082 -0.987017,-1.979201 -0.127468,-0.258381 -0.502982,-0.859549 -0.744138,-1.028358 -0.237711,-0.168809 -0.563271,-0.253214 -0.976681,-0.253214 h -1.136878 v 3.260773 h -1.043861 c 0,0 -1.328105,-6.83091 0,-7.715267 0.40161,-0.267424 2.356438,0 2.356438,0 0.881941,0 1.539952,0.184312 1.974033,0.552936 0.434081,0.368624 0.651121,0.925005 0.651121,1.669144 0,0.485757 -0.113688,0.888831 -0.341063,1.209224 -0.223931,0.320393 -0.551214,0.542601 -0.981849,0.666624 z M 29.803257,74.33833 v 2.738842 h 1.312577 c 0.502982,0 0.881941,-0.11541 1.136878,-0.346231 0.258381,-0.234265 0.387572,-0.577051 0.387572,-1.028357 0,-0.451306 -0.129191,-0.790647 -0.387572,-1.018023 C 31.997775,74.45374 31.618816,74.33833 31.115834,74.33833 Z"
             id="path16"
             sodipodi:nodetypes="cccczzcscccssssccccscscsc"
             inkscape:original-d="m 32.418076,77.578432 c 0.223931,0.07579 0.440971,0.237711 0.651121,0.485757 0.213595,0.248046 0.427191,0.589109 0.640786,1.02319 l 1.059363,2.108392 c 0,0 -0.321227,0.260487 -1.121375,0 -0.800148,-0.260487 -0.859549,-1.72082 -0.987017,-1.979201 -0.127468,-0.258381 -0.502982,-0.859549 -0.744138,-1.028358 -0.237711,-0.168809 -0.563271,-0.253214 -0.976681,-0.253214 h -1.136878 v 3.260773 h -1.043861 c 0,0 -1.328105,-6.83091 0,-7.715267 0.40161,-0.267424 2.356438,0 2.356438,0 0.881941,0 1.539952,0.184312 1.974033,0.552936 0.434081,0.368624 0.651121,0.925005 0.651121,1.669144 0,0.485757 -0.113688,0.888831 -0.341063,1.209224 -0.223931,0.320393 -0.551214,0.542601 -0.981849,0.666624 z M 29.803257,74.33833 v 2.738842 h 1.312577 c 0.502982,0 0.881941,-0.11541 1.136878,-0.346231 0.258381,-0.234265 0.387572,-0.577051 0.387572,-1.028357 0,-0.451306 -0.129191,-0.790647 -0.387572,-1.018023 C 31.997775,74.45374 31.618816,74.33833 31.115834,74.33833 Z" />
          <path
             d="m 37.818002,75.64956 c -0.509873,0 -0.886866,0.624908 -1.183143,1.024538 -0.296277,0.396185 -0.647385,0.944911 -0.647385,1.637373 0,0.692462 0.349385,1.234105 0.642218,1.633734 0.296277,0.396185 0.618523,0.876264 1.131841,0.876264 0.506427,0 0.990331,-0.481802 1.286608,-0.881431 0.296277,-0.39963 0.71671,-0.925371 0.71671,-1.614388 0,-0.685572 -0.420433,-1.246755 -0.71671,-1.646385 C 38.751864,76.27619 38.324429,75.64956 37.818002,75.64956 Z m 0.02608,-0.381057 c 0.82682,0 1.476218,0.268717 1.948195,0.80615 0.471977,0.537433 0.707965,1.281572 0.707965,2.232415 0,0.947398 -0.235988,1.691536 -0.707965,2.232414 -0.471977,0.537433 -1.121375,0.80615 -1.948195,0.80615 -0.830265,0 -1.481386,-0.268717 -1.953363,-0.80615 -0.468531,-0.540878 -0.702797,-1.285016 -0.702797,-2.232414 0,-0.950843 0.234266,-1.694982 0.702797,-2.232415 0.471977,-0.537433 1.123098,-0.80615 1.953363,-0.80615 z"
             id="path18"
             sodipodi:nodetypes="scscssscsssscscscs"
             inkscape:original-d="m 37.818002,75.64956 c -0.509873,0 -0.886866,0.624908 -1.183143,1.024538 -0.296277,0.396185 -0.647385,0.944911 -0.647385,1.637373 0,0.692462 0.349385,1.234105 0.642218,1.633734 0.296277,0.396185 0.618523,0.876264 1.131841,0.876264 0.506427,0 0.990331,-0.481802 1.286608,-0.881431 0.296277,-0.39963 0.71671,-0.925371 0.71671,-1.614388 0,-0.685572 -0.420433,-1.246755 -0.71671,-1.646385 C 38.751864,76.27619 38.324429,75.64956 37.818002,75.64956 Z m 0.02608,-0.381057 c 0.82682,0 1.476218,0.268717 1.948195,0.80615 0.471977,0.537433 0.707965,1.281572 0.707965,2.232415 0,0.947398 -0.235988,1.691536 -0.707965,2.232414 -0.471977,0.537433 -1.121375,0.80615 -1.948195,0.80615 -0.830265,0 -1.481386,-0.268717 -1.953363,-0.80615 -0.468531,-0.540878 -0.702797,-1.285016 -0.702797,-2.232414 0,-0.950843 0.234266,-1.694982 0.702797,-2.232415 0.471977,-0.537433 1.123098,-0.80615 1.953363,-0.80615 z" />
          <path
             d="m 46.414228,76.602671 c 0.237711,-0.427191 0.685075,-0.826018 1.015804,-1.029278 0.330728,-0.20326 0.720022,-0.30489 1.167883,-0.30489 0.60289,0 1.067976,0.211873 1.395259,0.635618 0.327283,0.420301 0.490925,1.019745 0.490925,1.798334 v 3.493316 h -0.956011 v -3.46231 c 0,-0.554659 -0.178923,-0.950103 -0.294555,-1.235063 -0.11208,-0.276205 -0.317033,-0.817961 -0.720108,-0.817961 -0.492647,0 -0.876324,0.683113 -1.162266,1.010396 -0.285942,0.327283 -0.613589,0.668836 -0.613589,1.23383 0,0 0.224105,3.190002 0,3.271108 -0.235273,0.08515 -0.734765,0.09086 -0.956011,0 -0.492366,-0.202198 0,-3.46231 0,-3.46231 0,-0.558104 -0.331111,-0.873776 -0.527476,-1.139047 -0.19637,-0.268717 -0.77908,-0.818441 -1.189045,-0.818441 -0.485757,0 -0.730999,0.337401 -1.016941,0.66813 -0.285942,0.327283 -0.389901,0.927428 -0.389901,1.488977 0,0 1.120279,3.044121 0.484985,3.277576 -0.280453,0.10306 -0.899538,0.11387 -1.147591,-0.0015 -1.368218,-0.636322 -0.453598,-5.16682 0.03944,-5.801134 1.33093,-0.187103 1.748066,-0.131227 2.816357,-0.139526 0.4203,0 0.776866,0.106798 1.069699,0.320393 0.340757,0.429772 0.428084,0.602211 0.493142,1.013782 z"
             id="path20"
             sodipodi:nodetypes="csscsccsssssssscscssscccc"
             inkscape:original-d="m 46.414228,76.602671 c 0.237711,-0.427191 0.685075,-0.826018 1.015804,-1.029278 0.330728,-0.20326 0.720022,-0.30489 1.167883,-0.30489 0.60289,0 1.067976,0.211873 1.395259,0.635618 0.327283,0.420301 0.490925,1.019745 0.490925,1.798334 v 3.493316 h -0.956011 v -3.46231 c 0,-0.554659 -0.178923,-0.950103 -0.294555,-1.235063 -0.11208,-0.276205 -0.317033,-0.817961 -0.720108,-0.817961 -0.492647,0 -0.876324,0.683113 -1.162266,1.010396 -0.285942,0.327283 -0.613589,0.668836 -0.613589,1.23383 0,0 0.224105,3.190002 0,3.271108 -0.235273,0.08515 -0.734765,0.09086 -0.956011,0 -0.492366,-0.202198 0,-3.46231 0,-3.46231 0,-0.558104 -0.331111,-0.873776 -0.527476,-1.139047 -0.19637,-0.268717 -0.77908,-0.818441 -1.189045,-0.818441 -0.485757,0 -0.730999,0.337401 -1.016941,0.66813 -0.285942,0.327283 -0.389901,0.927428 -0.389901,1.488977 0,0 1.120279,3.044121 0.484985,3.277576 -0.280453,0.10306 -0.899538,0.11387 -1.147591,-0.0015 -1.368218,-0.636322 -0.453598,-5.16682 0.03944,-5.801134 1.33093,-0.187103 1.748066,-0.131227 2.816357,-0.139526 0.4203,0 0.776866,0.106798 1.069699,0.320393 0.340757,0.429772 0.428084,0.602211 0.493142,1.013782 z" />
          <path
             d="m 57.394696,77.881338 c 0,0.155029 0.01777,0.462383 -0.10938,0.480854 -0.599505,0.08709 -4.371812,0 -4.371812,0 -0.561304,0 -0.424563,0.136908 -0.367614,0.326206 0.110743,0.368105 0.724661,0.944894 0.956723,1.172405 0.354844,0.341063 0.728625,0.787416 1.359075,0.787416 0.365179,0 0.837167,-0.320611 1.17823,-0.410179 0.344508,-0.08957 0.72074,-0.432903 1.02319,-0.403075 0.30245,0.02983 0.255599,0.672718 0,0.899167 -0.182422,0.161618 -0.690739,0.254937 -1.049028,0.330728 -0.358289,0.07579 -0.721745,0.113688 -1.09037,0.113688 -0.923283,0 -1.655363,-0.268717 -2.196241,-0.80615 -0.537433,-0.537433 -0.80615,-1.264345 -0.80615,-2.180738 0,-0.947398 0.254936,-1.698426 0.764809,-2.253085 0.513317,-0.558104 1.204057,-0.837156 2.072218,-0.837156 0.778589,0 1.393537,0.251491 1.844843,0.754474 0.454751,0.499537 0.791507,1.164174 0.791507,2.025445 z m -1.060223,-0.263285 c 0.436403,-0.277176 -0.15331,-0.93534 -0.439249,-1.245398 -0.282497,-0.310057 -0.590387,-0.898345 -1.058919,-0.898345 -0.530543,0 -1.023634,0.58312 -1.344027,0.882842 -0.316948,0.299723 -0.499538,0.721746 -0.547769,1.266069 -0.03792,0.427914 3.242997,0.08818 3.389964,-0.0052 z"
             id="path22"
             sodipodi:nodetypes="sssscsczssscscscsscscsss"
             inkscape:original-d="m 57.394696,77.881338 c 0,0.155029 0.01777,0.462383 -0.10938,0.480854 -0.599505,0.08709 -4.371812,0 -4.371812,0 -0.561304,0 -0.424563,0.136908 -0.367614,0.326206 0.110743,0.368105 0.724661,0.944894 0.956723,1.172405 0.354844,0.341063 0.728625,0.787416 1.359075,0.787416 0.365179,0 0.837167,-0.320611 1.17823,-0.410179 0.344508,-0.08957 0.72074,-0.432903 1.02319,-0.403075 0.30245,0.02983 0.255599,0.672718 0,0.899167 -0.182422,0.161618 -0.690739,0.254937 -1.049028,0.330728 -0.358289,0.07579 -0.721745,0.113688 -1.09037,0.113688 -0.923283,0 -1.655363,-0.268717 -2.196241,-0.80615 -0.537433,-0.537433 -0.80615,-1.264345 -0.80615,-2.180738 0,-0.947398 0.254936,-1.698426 0.764809,-2.253085 0.513317,-0.558104 1.204057,-0.837156 2.072218,-0.837156 0.778589,0 1.393537,0.251491 1.844843,0.754474 0.454751,0.499537 0.791507,1.164174 0.791507,2.025445 z m -1.060223,-0.263285 c 0.436403,-0.277176 -0.15331,-0.93534 -0.439249,-1.245398 -0.282497,-0.310057 -0.590387,-0.898345 -1.058919,-0.898345 -0.530543,0 -1.023634,0.58312 -1.344027,0.882842 -0.316948,0.299723 -0.499538,0.721746 -0.547769,1.266069 -0.03792,0.427914 3.242997,0.08818 3.389964,-0.0052 z" />
          <path
             d="m 60.742804,75.757393 c -0.509873,0 -0.848687,0.462352 -1.144964,0.861982 -0.296277,0.396185 -0.874271,0.902193 -0.874271,1.594655 0,0.692462 0.576271,1.276823 0.869104,1.676452 0.296277,0.396185 0.734791,0.921552 1.248108,0.921552 0.506427,0 0.874064,-0.52709 1.170341,-0.926719 0.296277,-0.39963 0.683272,-0.916453 0.683272,-1.60547 0,-0.685572 -0.386995,-1.255673 -0.683272,-1.655303 -0.296277,-0.403075 -0.761891,-0.867149 -1.268318,-0.867149 z m 0.06426,-0.543613 c 0.82682,0 1.476218,0.268717 1.948195,0.80615 0.471977,0.537433 0.707965,1.281572 0.707965,2.232415 0,0.947398 -0.235988,1.691536 -0.707965,2.232414 -0.471977,0.537433 -1.121375,0.80615 -1.948195,0.80615 -0.830265,0 -1.481386,-0.268717 -1.953363,-0.80615 -0.468531,-0.540878 -0.702797,-1.285016 -0.702797,-2.232414 0,-0.950843 0.234266,-1.694982 0.702797,-2.232415 0.471977,-0.537433 1.123098,-0.80615 1.953363,-0.80615 z"
             id="path24"
             sodipodi:nodetypes="scscssscsssscscscs"
             inkscape:original-d="m 60.742804,75.757393 c -0.509873,0 -0.848687,0.462352 -1.144964,0.861982 -0.296277,0.396185 -0.874271,0.902193 -0.874271,1.594655 0,0.692462 0.576271,1.276823 0.869104,1.676452 0.296277,0.396185 0.734791,0.921552 1.248108,0.921552 0.506427,0 0.874064,-0.52709 1.170341,-0.926719 0.296277,-0.39963 0.683272,-0.916453 0.683272,-1.60547 0,-0.685572 -0.386995,-1.255673 -0.683272,-1.655303 -0.296277,-0.403075 -0.761891,-0.867149 -1.268318,-0.867149 z m 0.06426,-0.543613 c 0.82682,0 1.476218,0.268717 1.948195,0.80615 0.471977,0.537433 0.707965,1.281572 0.707965,2.232415 0,0.947398 -0.235988,1.691536 -0.707965,2.232414 -0.471977,0.537433 -1.121375,0.80615 -1.948195,0.80615 -0.830265,0 -1.481386,-0.268717 -1.953363,-0.80615 -0.468531,-0.540878 -0.702797,-1.285016 -0.702797,-2.232414 0,-0.950843 0.234266,-1.694982 0.702797,-2.232415 0.471977,-0.537433 1.123098,-0.80615 1.953363,-0.80615 z" />
          <path
             d="m 66.511592,74.28568 c -0.35496,0.447569 -0.881023,5.783986 -0.220991,6.160143 0.239896,0.136718 1.850875,0.188295 1.850875,0.188295 1.064531,0 1.414609,-0.537329 1.907256,-1.019641 0.496093,-0.482312 0.744139,-1.243676 0.744139,-2.284091 0,-1.033525 -0.248046,-1.789721 -0.744139,-2.268588 -0.492647,-0.482312 -1.315441,-0.594536 -2.276239,-0.776118 -0.23903,-0.04517 -1.134921,-0.158849 -1.260901,0 z m -0.960514,-0.648782 c 0.457157,-0.217715 2.001691,-0.156394 2.001691,-0.156394 1.495167,0 2.592426,0.31178 3.291778,0.935341 0.699352,0.620115 1.049028,1.591628 1.049028,2.914541 0,1.329803 -0.351399,2.306484 -1.054196,2.930045 -0.702797,0.62356 -1.798333,0.93534 -3.28661,0.93534 0,0 -1.111759,-0.111307 -1.700169,-0.272124 -1.821064,-0.497711 -1.650809,-6.644168 -0.301522,-7.286749 z"
             id="path26"
             sodipodi:nodetypes="ssscscsssscsssss"
             inkscape:original-d="m 66.511592,74.28568 c -0.35496,0.447569 -0.881023,5.783986 -0.220991,6.160143 0.239896,0.136718 1.850875,0.188295 1.850875,0.188295 1.064531,0 1.414609,-0.537329 1.907256,-1.019641 0.496093,-0.482312 0.744139,-1.243676 0.744139,-2.284091 0,-1.033525 -0.248046,-1.789721 -0.744139,-2.268588 -0.492647,-0.482312 -1.315441,-0.594536 -2.276239,-0.776118 -0.23903,-0.04517 -1.134921,-0.158849 -1.260901,0 z m -0.960514,-0.648782 c 0.457157,-0.217715 2.001691,-0.156394 2.001691,-0.156394 1.495167,0 2.592426,0.31178 3.291778,0.935341 0.699352,0.620115 1.049028,1.591628 1.049028,2.914541 0,1.329803 -0.351399,2.306484 -1.054196,2.930045 -0.702797,0.62356 -1.798333,0.93534 -3.28661,0.93534 0,0 -1.111759,-0.111307 -1.700169,-0.272124 -1.821064,-0.497711 -1.650809,-6.644168 -0.301522,-7.286749 z" />
          <path
             d="m 79.340128,75.408029 c -0.0797,-0.129267 1.007687,0 1.007687,0 0,0 0.488361,5.139474 1.643656,5.425624 1.029595,0.255016 0.828542,-5.128262 1.973683,-5.425624 0.280924,-0.07295 0.703202,-0.05618 1.007687,0 0.471154,0.08694 -2.170403,5.787742 -2.170403,5.787742 0,0 -1.0117,0.129544 -1.291907,0 -0.75138,-0.347376 -2.033331,-5.565424 -2.170403,-5.787742 z"
             id="path30"
             sodipodi:nodetypes="scssscss"
             inkscape:original-d="m 79.340128,75.408029 c -0.0797,-0.129267 1.007687,0 1.007687,0 0,0 0.488361,5.139474 1.643656,5.425624 1.029595,0.255016 0.828542,-5.128262 1.973683,-5.425624 0.280924,-0.07295 0.703202,-0.05618 1.007687,0 0.471154,0.08694 -2.170403,5.787742 -2.170403,5.787742 0,0 -1.0117,0.129544 -1.291907,0 -0.75138,-0.347376 -2.033331,-5.565424 -2.170403,-5.787742 z" />
          <path
             d="m 78.016374,77.99036 c 0,0.155029 0.01777,0.462383 -0.10938,0.480854 -0.599505,0.08709 -4.371812,0 -4.371812,0 -0.561304,0 -0.424563,0.136908 -0.367614,0.326206 0.110743,0.368104 0.724661,0.944894 0.956723,1.172404 0.354844,0.341064 0.728625,0.787417 1.359075,0.787417 0.365179,0 0.837167,-0.320611 1.17823,-0.41018 0.344508,-0.08957 0.72074,-0.432902 1.02319,-0.403074 0.30245,0.02983 0.255599,0.672718 0,0.899166 -0.182422,0.161619 -0.690739,0.254938 -1.049028,0.330729 -0.358289,0.07579 -0.721745,0.113688 -1.09037,0.113688 -0.923283,0 -1.655363,-0.268718 -2.196241,-0.806151 -0.537433,-0.537432 -0.80615,-1.264344 -0.80615,-2.180737 0,-0.947398 0.254936,-1.698426 0.764809,-2.253085 0.513317,-0.558104 1.204057,-0.837156 2.072218,-0.837156 0.778589,0 1.393537,0.251491 1.844843,0.754474 0.454751,0.499537 0.791507,1.164174 0.791507,2.025445 z m -1.060223,-0.263285 c 0.436403,-0.277176 -0.15331,-0.93534 -0.439249,-1.245398 -0.282497,-0.310057 -0.590387,-0.898345 -1.058919,-0.898345 -0.530543,0 -1.023634,0.58312 -1.344027,0.882842 -0.316948,0.299723 -0.499538,0.721746 -0.547769,1.266069 -0.03792,0.427914 3.242997,0.08818 3.389964,-0.0052 z"
             id="path22-3"
             sodipodi:nodetypes="sssscsczssscscscsscscsss"
             style="font-size:10.5833px;line-height:1.25;font-family:sans-serif;letter-spacing:0px;word-spacing:0px;white-space:pre;shape-inside:url(#rect12);stroke-width:0.999998"
             inkscape:original-d="m 78.016374,77.99036 c 0,0.155029 0.01777,0.462383 -0.10938,0.480854 -0.599505,0.08709 -4.371812,0 -4.371812,0 -0.561304,0 -0.424563,0.136908 -0.367614,0.326206 0.110743,0.368104 0.724661,0.944894 0.956723,1.172404 0.354844,0.341064 0.728625,0.787417 1.359075,0.787417 0.365179,0 0.837167,-0.320611 1.17823,-0.41018 0.344508,-0.08957 0.72074,-0.432902 1.02319,-0.403074 0.30245,0.02983 0.255599,0.672718 0,0.899166 -0.182422,0.161619 -0.690739,0.254938 -1.049028,0.330729 -0.358289,0.07579 -0.721745,0.113688 -1.09037,0.113688 -0.923283,0 -1.655363,-0.268718 -2.196241,-0.806151 -0.537433,-0.537432 -0.80615,-1.264344 -0.80615,-2.180737 0,-0.947398 0.254936,-1.698426 0.764809,-2.253085 0.513317,-0.558104 1.204057,-0.837156 2.072218,-0.837156 0.778589,0 1.393537,0.251491 1.844843,0.754474 0.454751,0.499537 0.791507,1.164174 0.791507,2.025445 z m -1.060223,-0.263285 c 0.436403,-0.277176 -0.15331,-0.93534 -0.439249,-1.245398 -0.282497,-0.310057 -0.590387,-0.898345 -1.058919,-0.898345 -0.530543,0 -1.023634,0.58312 -1.344027,0.882842 -0.316948,0.299723 -0.499538,0.721746 -0.547769,1.266069 -0.03792,0.427914 3.242997,0.08818 3.389964,-0.0052 z" />
        </g>
      </g>
    </g>
  </g>
</svg>
